<svg width="57" height="57" viewBox="0 0 57 57" fill="none" xmlns="http://www.w3.org/2000/svg">
<g clip-path="url(#clip0)">
<path d="M28.278 37.243C36.927 37.243 43.965 30.206 43.965 21.556C43.965 12.906 36.927 5.87 28.278 5.87C19.629 5.87 12.591 12.907 12.591 21.557C12.591 30.207 19.628 37.243 28.278 37.243ZM18.984 30.163H22.55C22.86 31.336 23.235 32.422 23.681 33.368C21.878 32.664 20.278 31.56 18.984 30.163ZM15.688 23.057H21.549C21.602 24.455 21.732 25.839 21.934 27.163H16.915C16.287 25.897 15.861 24.517 15.688 23.057ZM16.914 15.951C16.914 15.951 16.915 15.951 16.914 15.951H21.933C21.732 17.276 21.602 18.658 21.548 20.056H15.687C15.861 18.597 16.287 17.217 16.914 15.951ZM28.278 8.87C29.007 8.87 30.068 10.333 30.878 12.951H25.677C26.488 10.333 27.549 8.87 28.278 8.87ZM31.581 15.951C31.792 17.183 31.945 18.552 32.006 20.056H24.551C24.612 18.552 24.765 17.183 24.975 15.951H31.581ZM39.642 15.951C40.269 17.217 40.695 18.597 40.868 20.057H35.008C34.955 18.659 34.825 17.276 34.623 15.952L39.642 15.951C39.641 15.951 39.641 15.951 39.642 15.951ZM39.641 27.163H34.622C34.824 25.838 34.953 24.455 35.007 23.057H40.867C40.694 24.517 40.268 25.897 39.641 27.163ZM28.278 34.243C27.55 34.243 26.488 32.78 25.678 30.163H30.878C30.068 32.781 29.006 34.243 28.278 34.243ZM24.975 27.163C24.764 25.93 24.611 24.561 24.55 23.057H32.005C31.944 24.562 31.791 25.931 31.58 27.163H24.975V27.163ZM32.875 33.368C33.322 32.422 33.697 31.336 34.007 30.163H37.572C36.278 31.56 34.678 32.664 32.875 33.368ZM37.573 12.951H34.007C33.697 11.777 33.322 10.691 32.875 9.745C34.679 10.45 36.278 11.554 37.573 12.951ZM23.681 9.745C23.234 10.691 22.859 11.777 22.549 12.951H18.983C20.278 11.554 21.877 10.45 23.681 9.745Z" fill="#1A4367"/>
<path d="M47.521 0H9.034C8.205 0 7.534 0.672 7.534 1.5V55.056C7.534 55.884 8.205 56.556 9.034 56.556H47.521C48.35 56.556 49.021 55.884 49.021 55.056V1.5C49.021 0.672 48.35 0 47.521 0ZM46.021 53.556H10.534V3H46.021V53.556Z" fill="#1A4367"/>
<path d="M18.45 40.44C17.46 40.44 16.565 40.784 16.18 41.568H16.152V40.606H14.983V50.443H16.152V46.77H16.18C16.689 47.609 17.762 47.883 18.478 47.883C20.651 47.883 21.724 46.205 21.724 44.183C21.725 42.174 20.638 40.44 18.45 40.44ZM18.354 46.851C16.745 46.851 16.112 45.545 16.112 44.155C16.112 42.834 16.703 41.472 18.286 41.472C19.799 41.472 20.487 42.766 20.487 44.1C20.487 45.489 19.95 46.851 18.354 46.851Z" fill="#1A4367"/>
<path d="M28.677 46.053V42.393C28.677 40.728 27.287 40.439 26.008 40.439C24.412 40.439 23.064 41.059 22.995 42.819H24.164C24.219 41.774 24.948 41.47 25.939 41.47C26.668 41.47 27.521 41.621 27.521 42.654C27.521 43.548 26.406 43.438 25.127 43.699C23.916 43.919 22.719 44.277 22.719 45.887C22.719 47.317 23.779 47.881 25.071 47.881C26.062 47.881 26.928 47.552 27.575 46.781C27.575 47.552 27.96 47.881 28.565 47.881C28.909 47.881 29.198 47.813 29.405 47.688V46.781C29.281 46.822 29.157 46.849 29.047 46.849C28.677 46.851 28.677 46.603 28.677 46.053ZM27.507 45.241C27.507 45.902 26.874 46.851 25.333 46.851C24.618 46.851 23.957 46.577 23.957 45.806C23.957 44.058 26.598 44.719 27.506 44.045V45.241H27.507Z" fill="#1A4367"/>
<path d="M33.757 43.618C32.67 43.37 31.432 43.206 31.432 42.38C31.432 41.664 32.244 41.471 32.945 41.471C33.702 41.471 34.527 41.76 34.596 42.669H35.765C35.655 40.935 34.444 40.44 32.849 40.44C31.597 40.44 30.194 41.031 30.194 42.463C30.194 45.201 34.844 43.962 34.844 45.792C34.844 46.686 33.853 46.851 33.124 46.851C32.175 46.851 31.253 46.522 31.212 45.475H30.043C30.112 47.236 31.46 47.882 33.056 47.882C34.501 47.882 36.082 47.345 36.082 45.64C36.082 44.279 34.926 43.88 33.757 43.618Z" fill="#1A4367"/>
<path d="M40.639 43.618C39.552 43.37 38.314 43.206 38.314 42.38C38.314 41.664 39.126 41.471 39.827 41.471C40.584 41.471 41.409 41.76 41.478 42.669H42.647C42.537 40.935 41.326 40.44 39.73 40.44C38.478 40.44 37.075 41.031 37.075 42.463C37.075 45.201 41.725 43.962 41.725 45.792C41.725 46.686 40.734 46.851 40.005 46.851C39.056 46.851 38.134 46.522 38.093 45.475H36.924C36.993 47.236 38.341 47.882 39.937 47.882C41.381 47.882 42.963 47.345 42.963 45.64C42.964 44.279 41.809 43.88 40.639 43.618Z" fill="#1A4367"/>
</g>
<defs>
<clipPath id="clip0">
<rect width="56.556" height="56.556" fill="white"/>
</clipPath>
</defs>
</svg>
