<svg width="297" height="227" viewBox="0 0 297 227" fill="none" xmlns="http://www.w3.org/2000/svg">
<path d="M45.432 0.0490112C45.424 0.0490112 45.415 0.0490112 45.407 0.0490112C42.598 0.0490112 39.956 1.14401 37.961 3.13401C35.944 5.14601 34.833 7.82501 34.833 10.677V170.042C34.833 175.886 39.606 180.652 45.474 180.667C70.212 180.726 111.658 185.882 140.25 215.803V49.023C140.25 47.042 139.744 45.181 138.789 43.641C115.322 5.84901 70.226 0.107011 45.432 0.0490112Z" fill="#1A4367"/>
<path d="M262.167 170.042V10.676C262.167 7.824 261.056 5.145 259.039 3.133C257.044 1.143 254.4 0.0480042 251.594 0.0480042C251.585 0.0480042 251.576 0.0480042 251.568 0.0480042C226.775 0.107004 181.679 5.849 158.211 43.641C157.256 45.181 156.751 47.042 156.751 49.023V215.802C185.343 185.881 226.789 180.725 251.527 180.666C257.394 180.651 262.167 175.885 262.167 170.042Z" fill="#1A4367"/>
<path d="M286.373 36.801H278.667V170.042C278.667 184.963 266.51 197.13 251.566 197.167C230.583 197.217 195.985 201.32 171.482 224.511C213.86 214.135 258.534 220.88 283.994 226.682C287.173 227.406 290.458 226.658 293.005 224.628C295.543 222.603 296.999 219.576 296.999 216.327V47.427C297 41.568 292.232 36.801 286.373 36.801Z" fill="#1A4367"/>
<path d="M18.332 170.042V36.801H10.626C4.768 36.801 0 41.568 0 47.427V216.324C0 219.574 1.456 222.6 3.994 224.625C6.539 226.654 9.821 227.405 13.005 226.679C38.465 220.876 83.14 214.132 125.516 224.508C101.014 201.318 66.416 197.216 45.433 197.166C30.49 197.13 18.332 184.963 18.332 170.042Z" fill="#1A4367"/>
</svg>
